# xmcd
#
# Track frame offsets:
#  150
#  14327
#  28858
#  41138
#  53418
#  62833
#  72657
#  85346
#  98240
#  114613
#
# Disc length: 1691 seconds
#
# Revision: 0
# Processed by: cddbd v1.5.1PL0 Copyright (c) Steve Scherf et al.
# Submitted via: AltoMP3_Maker 3.0
#
DISCID=8906990a
DTITLE=Merle Haggard - The Best of the 1960's songs
DYEAR=1900
DGENRE=
TTITLE0=I'm a Lonesome Fugitive
TTITLE1=Branded Man
TTITLE2=The Bottle Let Me Down
TTITLE3=Workin' Man Blues
TTITLE4=The Legend of Bonnie and Clyde
TTITLE5=Mama Tried
TTITLE6=Sing Me Back Home
TTITLE7=Swingin' Doors
TTITLE8=Hungry Eyes
TTITLE9=Okie From Muskogee
EXTD=
EXTT0=
EXTT1=
EXTT2=
EXTT3=
EXTT4=
EXTT5=
EXTT6=
EXTT7=
EXTT8=
EXTT9=
PLAYORDER=
